<?xml version="1.0" encoding="utf-8"?>
<!-- Generator: Adobe Illustrator 16.0.0, SVG Export Plug-In . SVG Version: 6.00 Build 0)  -->
<!DOCTYPE svg PUBLIC "-//W3C//DTD SVG 1.1//EN" "http://www.w3.org/Graphics/SVG/1.1/DTD/svg11.dtd">
<svg version="1.1" id="Camada_1" xmlns="http://www.w3.org/2000/svg" xmlns:xlink="http://www.w3.org/1999/xlink" x="0px" y="0px"
	 width="2841.35px" height="523.701px" viewBox="0 0 2841.35 523.701" enable-background="new 0 0 2841.35 523.701"
	 xml:space="preserve">
<g>
	<defs>
		<path id="SVGID_1_" d="M56.693,161.477v100.156v0.501v100.164c0,108.102,118.626,104.698,123.553,104.698h78.051V348.072
			l-87.087,0.103c0,0-14.541-2.857-14.541-20.053c0-17.186,9.648-20.896,9.648-20.896h91.98l0.604-45.092v-0.128v-0.101V261.7
			v-0.067l-0.604-45.085l-91.98-0.034c0,0-9.648-3.708-9.648-20.947c0-17.135,14.541-19.966,14.541-19.966l87.087,0.101V56.71
			h-78.051c-0.29,0-0.972-0.012-2-0.012C161.784,56.698,56.693,59.689,56.693,161.477"/>
	</defs>
	<use xlink:href="#SVGID_1_"  overflow="visible" fill="#FFFFFF"/>
	<clipPath id="SVGID_2_">
		<use xlink:href="#SVGID_1_"  overflow="visible"/>
	</clipPath>
	
		<rect x="-50.786" y="158.85" transform="matrix(-0.0175 0.9998 -0.9998 -0.0175 424.0597 110.3751)" clip-path="url(#SVGID_2_)" fill="#FFFFFF" width="417.167" height="209.398"/>
</g>
<path fill-rule="evenodd" clip-rule="evenodd" fill="#FFFFFF" d="M258.901,261.701v-0.068l-0.604-45.084l-91.979-0.035
	c0,0-9.648-3.708-9.648-20.946c0-17.135,14.54-19.967,14.54-19.967l87.087,0.101V56.711h-78.052
	c-4.926,0-123.552-3.378-123.552,104.766v100.156v0.502v100.163c0,108.102,118.626,104.698,123.552,104.698h78.052V348.072
	l-87.087,0.103c0,0-14.54-2.858-14.54-20.053c0-17.187,9.648-20.896,9.648-20.896h91.979l0.604-45.091v-0.128v-0.102V261.701z"/>
<rect fill="none" width="2841.345" height="523.701"/>
<g>
	<defs>
		<path id="SVGID_3_" d="M363.182,56.71h-78.009v118.992l87.044-0.101c0,0,14.575,2.831,14.575,19.966
			c0,17.239-9.681,20.947-9.681,20.947l-91.938,0.034l-0.595,45.085h-0.051v0.067l0.051,0.205l-0.051,0.101v0.128h0.051
			l0.595,45.092h91.938c0,0,9.681,3.71,9.681,20.896c0,17.195-14.575,20.053-14.575,20.053l-87.044-0.103v118.924h78.009
			c4.961,0,123.595,3.403,123.595-104.698V262.134v-0.501V161.477c0-101.781-105.087-104.778-121.589-104.779
			C364.157,56.698,363.474,56.71,363.182,56.71"/>
	</defs>
	<clipPath id="SVGID_4_">
		<use xlink:href="#SVGID_3_"  overflow="visible"/>
	</clipPath>
	
		<radialGradient id="SVGID_5_" cx="0" cy="523.7012" r="1" gradientTransform="matrix(161.731 0 0 -289.6893 377.25 151893.0625)" gradientUnits="userSpaceOnUse">
		<stop  offset="0" style="stop-color:#DBA815"/>
		<stop  offset="1" style="stop-color:#BA8215"/>
	</radialGradient>
	<rect x="284.527" y="56.698" clip-path="url(#SVGID_4_)" fill="url(#SVGID_5_)" width="202.25" height="413.701"/>
</g>
<path fill-rule="evenodd" clip-rule="evenodd" fill="#E6B300" d="M284.527,262.006v0.128h0.051l0.595,45.091h91.937
	c0,0,9.682,3.71,9.682,20.896c0,17.194-14.574,20.053-14.574,20.053l-87.045-0.103v118.924h78.009
	c4.961,0,123.595,3.403,123.595-104.697V262.134v-0.502V161.478c0-108.144-118.634-104.767-123.595-104.767h-78.009v118.992
	l87.045-0.102c0,0,14.574,2.832,14.574,19.968c0,17.237-9.682,20.946-9.682,20.946l-91.937,0.034l-0.595,45.084h-0.051v0.068
	l0.051,0.204L284.527,262.006z"/>
<path fill="#FFFFFF" d="M2741.659,142.598c-23.63,0-42.935-19.269-42.935-43.053c0-23.631,19.305-42.851,42.935-42.851
	c23.772,0,42.993,19.22,42.993,42.851C2784.652,123.329,2765.432,142.598,2741.659,142.598 M2741.659,62.891
	c-20.222,0-36.727,16.468-36.727,36.654c0,20.269,16.505,36.725,36.727,36.725c20.281,0,36.726-16.456,36.726-36.725
	C2778.385,79.359,2761.94,62.891,2741.659,62.891"/>
<path fill="#FFFFFF" d="M2720.817,123.602V76.093h21.021c4.218,0,7.481,0.428,9.615,1.298c2.181,0.883,3.968,2.372,5.338,4.517
	c1.287,2.134,1.968,4.504,1.968,7.197c0,3.337-1.146,6.197-3.338,8.461c-2.108,2.359-5.492,3.789-10.057,4.421
	c1.68,0.774,2.872,1.561,3.801,2.347c1.859,1.68,3.503,3.765,5.184,6.328l8.283,12.94h-7.926l-6.268-9.866
	c-1.859-2.896-3.348-5.077-4.6-6.578c-1.096-1.477-2.181-2.562-3.146-3.205c-0.906-0.537-1.896-0.965-2.968-1.263
	c-0.608-0.107-1.75-0.155-3.432-0.155h-7.257v21.067H2720.817z M2727.038,97.054h13.488c2.981,0,5.149-0.274,6.746-0.917
	c1.644-0.538,2.907-1.526,3.753-2.838c0.763-1.286,1.263-2.668,1.263-4.194c0-2.312-0.834-4.098-2.407-5.576
	c-1.691-1.442-4.229-2.181-7.877-2.181h-14.966V97.054z"/>
<polygon fill="#FFFFFF" points="565.102,456.158 565.102,175.95 565.102,66.834 822.157,66.834 822.157,160.089 668.463,160.089 
	668.463,211.877 798.433,211.877 798.433,301.213 668.463,301.213 668.463,361.521 828.497,361.521 828.497,456.158 "/>
<path fill="#FFFFFF" d="M849.529,456.158V66.834h98.022l90.276,181.018c2.778,5.148,5.732,12.286,8.842,21.616
	c3.123,9.449,6.459,20.639,9.927,33.891c-0.846-6.806-1.478-14.419-1.943-22.736c-0.453-8.282-0.63-18.34-0.63-30.125V66.834h98.474
	v389.324h-98.474l-90.254-179.744c-2.825-5.289-5.816-12.809-8.985-22.449c-3.36-9.724-6.65-20.829-10.081-33.329
	c1.143,6.852,1.859,14.025,2.288,21.509c0.453,7.507,0.56,17.993,0.56,31.601v182.412H849.529z"/>
<path fill="#FFFFFF" d="M1425.83,456.158l-5.064-33.531c-11.63,14.918-25.715,26.048-42.136,33.329
	c-16.504,7.341-35.617,11.046-57.473,11.046c-46.018,0-82.328-18.327-108.746-54.874c-26.514-36.571-39.717-86.653-39.717-150.299
	c0-64.979,14.741-115.431,44.244-151.311c29.541-35.855,71.021-53.825,124.37-53.825c41.885,0,75.668,12.667,101.478,37.809
	c25.644,25.239,40.897,60.773,45.723,106.519h-98.117c-3.969-15.443-10.261-27.263-19.126-35.379
	c-8.807-8.102-19.651-12.165-32.639-12.165c-20.639,0-36.13,9.615-46.461,28.812c-10.224,19.197-15.3,47.867-15.3,85.891
	c0,35.273,5.124,61.632,15.479,79.089c10.306,17.445,26.072,26.12,47.128,26.12c15.169,0,28.003-4.254,38.596-12.834
	c10.558-8.532,17.053-19.96,19.519-34.473h-46.486v-83.306h141.28v213.382H1425.83z"/>
<polygon fill="#FFFFFF" points="1523.613,456.158 1523.613,66.834 1780.813,66.834 1780.813,160.089 1626.986,160.089 
	1626.986,211.877 1757.086,211.877 1757.086,301.213 1626.986,301.213 1626.986,361.521 1787.104,361.521 1787.104,456.158 "/>
<path fill="#FFFFFF" d="M1808.1,456.158V66.834h132.424c29.242,0,52.419,1.991,69.579,6.124
	c17.052,4.183,31.364,10.857,42.838,19.996c14.979,12.143,25.978,27.169,33.259,45.163c7.256,18.005,10.867,39.31,10.867,63.989
	c0,43.53-10.533,76.907-31.792,100.048c-21.295,23.118-51.943,34.808-92.04,34.808h-61.869v119.196H1808.1z M1911.365,241.68h33.222
	c21.568,0,36.07-2.848,43.305-8.651c7.256-5.744,10.986-16.123,10.986-30.923c0-14.92-3.574-25.357-10.521-31.173
	c-6.972-5.826-21.594-8.699-43.77-8.699h-33.222V241.68z"/>
<path fill="#FFFFFF" d="M2054.776,456.158L2167.98,66.834h104.529l113.189,389.324H2283.28l-11.987-51.524h-102.479l-12.476,51.524
	H2054.776z M2187.582,322.9h64.848l-32.03-134.855L2187.582,322.9z"/>
<path fill="#FFFFFF" d="M2387.999,456.158V66.834h153.946c48.152,0,82.543,8.58,103.217,26.12
	c20.699,17.398,30.958,46.056,30.958,85.928c0,23.784-4.338,43.53-12.738,59.188c-8.473,15.694-21.448,28.134-39.121,37.25
	c17.972,4.563,30.972,13.62,39.121,27.132c8.15,13.478,12.562,33.224,13.12,59.32l1.775,54.157c0,0.405,0,0.848,0.155,1.383
	c0.513,15.479,3.514,23.594,9.187,24.286v14.561h-104.171c-1.907-9.366-3.3-17.515-4.253-24.464
	c-0.918-6.959-1.431-12.404-1.431-16.266v-38.857c0-20.056-3.278-34.188-9.818-42.422c-6.555-8.199-17.96-12.31-34.141-12.31
	h-43.923v134.318H2387.999z M2489.883,234.101h47.045c16.443,0,27.766-2.669,34.032-8.103c6.245-5.291,9.461-14.752,9.461-28.098
	c0-13.787-3.216-23.332-9.461-28.718c-6.267-5.375-18.506-8.043-36.678-8.043h-44.399V234.101z"/>
</svg>
