<?xml version="1.0" encoding="utf-8"?>
<!-- Generator: Adobe Illustrator 22.1.0, SVG Export Plug-In . SVG Version: 6.00 Build 0)  -->
<svg version="1.1" id="Camada_1" xmlns="http://www.w3.org/2000/svg" xmlns:xlink="http://www.w3.org/1999/xlink" x="0px" y="0px"
	 width="2717.8px" height="410.4px" viewBox="0 0 2717.8 410.4" style="enable-background:new 0 0 2717.8 410.4;"
	 xml:space="preserve">
<style type="text/css">
	.st0{fill:url(#SVGID_1_);}
	.st1{fill:#004682;}
	.st2{fill:url(#SVGID_2_);}
	.st3{fill:#E6B300;}
</style>
<linearGradient id="SVGID_1_" gradientUnits="userSpaceOnUse" x1="98.1782" y1="1.7191" x2="105.3646" y2="413.424" gradientTransform="matrix(1 0 0 -1 0 411.7561)">
	<stop  offset="1.470590e-02" style="stop-color:#4069AA"/>
	<stop  offset="0.7794" style="stop-color:#4069AA"/>
</linearGradient>
<path class="st0" d="M202.2,205L202.2,205L202.2,205l-0.6-45.2h-92c0,0-9.6-3.7-9.6-20.9c0-17.1,14.5-20,14.5-20l87.1,0.1V0
	c0,0-73.1,0-78.1,0C118.6,0,0-3.4,0,104.8V205v0.5v100.2c0,108.1,118.6,104.7,123.6,104.7c4.9,0,78.1,0,78.1,0v-119l-87.1,0.1
	c0,0-14.5-2.9-14.5-20.1s9.6-20.9,9.6-20.9h92l0.6-45.1l0,0v-0.1v-0.1V205H202.2z"/>
<path class="st1" d="M202.2,205L202.2,205L202.2,205l-0.6-45.2h-92c0,0-9.6-3.7-9.6-20.9c0-17.1,14.5-20,14.5-20l87.1,0.1V0
	c0,0-73.1,0-78.1,0C118.6,0,0-3.4,0,104.8V205v0.5v100.2c0,108.1,118.6,104.7,123.6,104.7c4.9,0,78.1,0,78.1,0v-119l-87.1,0.1
	c0,0-14.5-2.9-14.5-20.1s9.6-20.9,9.6-20.9h92l0.6-45.1l0,0v-0.1v-0.1V205H202.2z"/>
<radialGradient id="SVGID_2_" cx="320.6017" cy="226.3368" r="161.731" gradientTransform="matrix(1 0 0 -1.7912 0 531.2048)" gradientUnits="userSpaceOnUse">
	<stop  offset="0" style="stop-color:#DBA915"/>
	<stop  offset="1" style="stop-color:#BA8215"/>
</radialGradient>
<path class="st2" d="M227.8,205.3v0.1h0.1l0.6,45.1h91.9c0,0,9.7,3.7,9.7,20.9s-14.6,20.1-14.6,20.1l-87-0.1v118.9c0,0,73,0,78,0
	s123.6,3.4,123.6-104.7V205.4v-0.5V104.8C430.1-3.4,311.5,0,306.5,0s-78,0-78,0v119l87-0.1c0,0,14.6,2.8,14.6,20s-9.7,20.9-9.7,20.9
	h-91.9l-0.6,45.1h-0.1v0.1l0.1,0.2L227.8,205.3z"/>
<path class="st3" d="M227.8,205.3v0.1h0.1l0.6,45.1h91.9c0,0,9.7,3.7,9.7,20.9s-14.6,20.1-14.6,20.1l-87-0.1v118.9c0,0,73,0,78,0
	s123.6,3.4,123.6-104.7V205.4v-0.5V104.8C430.1-3.4,311.5,0,306.5,0s-78,0-78,0v119l87-0.1c0,0,14.6,2.8,14.6,20s-9.7,20.9-9.7,20.9
	h-91.9l-0.6,45.1h-0.1v0.1l0.1,0.2L227.8,205.3z"/>
<g>
	<g>
		<g>
			<path class="st1" d="M2674.8,85.9c-23.7,0-43-19.3-43-43s19.3-42.9,43-42.9c23.8,0,43,19.2,43,42.9
				C2717.8,66.7,2698.6,85.9,2674.8,85.9z M2674.8,6.2c-20.2,0-36.7,16.5-36.7,36.7c0,20.3,16.5,36.7,36.7,36.7
				c20.3,0,36.7-16.4,36.7-36.7C2711.6,22.7,2695.1,6.2,2674.8,6.2z"/>
		</g>
		<g>
			<g>
				<path class="st1" d="M2654.1,67V19.5h21c4.2,0,7.4,0.4,9.7,1.3c2.2,0.8,3.9,2.4,5.3,4.5c1.3,2.1,2,4.5,2,7.1
					c0,3.4-1.1,6.2-3.4,8.4c-2.1,2.4-5.5,3.8-10.1,4.5c1.7,0.8,2.9,1.5,3.8,2.4c1.8,1.7,3.5,3.8,5.2,6.3l8.3,12.9h-8l-6.3-9.8
					c-1.8-2.9-3.4-5-4.6-6.6c-1.1-1.5-2.2-2.5-3.1-3.2c-0.8-0.6-2-1-2.9-1.3c-0.6-0.1-1.8-0.1-3.4-0.1h-7.3v21h-6.2V67z
					 M2660.2,40.3h13.4c2.9,0,5.2-0.3,6.7-1c1.7-0.6,2.9-1.5,3.8-2.8c0.7-1.3,1.3-2.7,1.3-4.2c0-2.4-0.8-4.1-2.4-5.6
					c-1.7-1.4-4.2-2.2-7.8-2.2h-15V40.3z"/>
			</g>
		</g>
	</g>
</g>
<g>
	<path class="st1" d="M498.5,399.4V119.2V10.1h257v93.3H601.9v51.8h130v89.3h-130v60.4h160.1v94.7H498.5V399.4z"/>
	<path class="st1" d="M783,399.4V10.1h98L971.3,191c2.8,5.2,5.7,12.3,8.8,21.6c3.1,9.4,6.4,20.6,9.9,33.9c-0.8-6.9-1.5-14.4-2-22.7
		c-0.4-8.3-0.7-18.3-0.7-30.1V10.1h98.4v389.3h-98.4l-90.2-179.7c-2.8-5.3-5.9-12.7-9-22.4c-3.4-9.7-6.6-20.9-10.1-33.3
		c1.1,6.9,1.8,14,2.2,21.6s0.6,17.9,0.6,31.6v182.3h-98V399.4z"/>
	<path class="st1" d="M1359.2,399.4l-5-33.5c-11.6,15-25.8,26-42.2,33.3c-16.5,7.3-35.6,11.1-57.4,11.1
		c-46.1,0-82.3-18.3-108.7-54.9c-26.5-36.6-39.8-86.7-39.8-150.3c0-65,14.7-115.4,44.3-151.2c29.4-36,70.9-53.9,124.2-53.9
		c41.9,0,75.6,12.6,101.5,37.8c25.6,25.2,40.9,60.8,45.7,106.6h-98.2c-3.9-15.4-10.2-27.3-19.2-35.4c-8.8-8.1-19.6-12.2-32.6-12.2
		c-20.6,0-36.1,9.7-46.5,28.8c-10.2,19.2-15.3,47.9-15.3,85.8c0,35.3,5.2,61.6,15.5,79.1c10.4,17.5,26,26,47.1,26
		c15.1,0,28-4.2,38.7-12.9c10.5-8.5,17.1-20,19.5-34.5h-46.4V186h141.3v213.4H1359.2z"/>
	<path class="st1" d="M1457,399.4V10.1h257.1v93.3h-153.8v51.8h130.1v89.3h-130.1v60.4h160.1v94.7H1457V399.4z"/>
	<path class="st1" d="M1741.4,399.4V10.1h132.3c29.3,0,52.4,2,69.6,6.2c17.1,4.2,31.4,10.9,42.9,20c15,12.2,25.9,27.2,33.2,45.1
		c7.3,18.1,10.9,39.4,10.9,64c0,43.6-10.5,76.9-31.8,100c-21.3,23.1-52,34.9-92,34.9h-61.9v119.2H1741.4z M1844.6,185h33.2
		c21.6,0,36.1-2.8,43.3-8.7c7.3-5.7,10.9-16.1,10.9-30.9c0-15-3.6-25.3-10.5-31.2c-7-5.9-21.6-8.7-43.8-8.7h-33V185z"/>
	<path class="st1" d="M1988,399.4l113.2-389.3h104.5l113.2,389.3h-102.4l-12-51.5h-102.5l-12.5,51.5H1988z M2120.8,266.2h64.8
		l-32.1-134.9L2120.8,266.2z"/>
	<path class="st1" d="M2321.2,399.4V10.1h153.9c48.2,0,82.5,8.5,103.2,26c20.7,17.4,30.9,46.1,30.9,86c0,23.8-4.3,43.6-12.7,59.2
		c-8.4,15.7-21.4,28.1-39.1,37.3c17.9,4.6,30.9,13.6,39.1,27.2c8.1,13.4,12.6,33.2,13.2,59.4l1.8,54.2c0,0.4,0,0.8,0.1,1.4
		c0.6,15.5,3.5,23.5,9.2,24.2v14.6h-104.2c-2-9.4-3.4-17.5-4.2-24.5c-1-7-1.4-12.5-1.4-16.2V320c0-20-3.2-34.2-9.8-42.4
		c-6.6-8.3-17.9-12.3-34.2-12.3h-44v134.3h-102V399.4z M2423.1,177.4h47.1c16.4,0,27.7-2.7,34-8.1c6.3-5.3,9.5-14.7,9.5-28.1
		c0-13.7-3.2-23.4-9.5-28.7c-6.3-5.3-18.5-8-36.7-8h-44.4V177.4L2423.1,177.4z"/>
</g>
</svg>
